<svg xmlns="http://www.w3.org/2000/svg" width="220" height="160" viewBox="0 0 220 160">
  <path
    fill="#1a1a1a"
    fill-opacity=".16"
    d="M62 23c20-8 48 2 55 20 7 17-6 36-27 43-22 7-51-1-58-19-8-19 8-36 30-44Z"
  />
  <path
    fill="#1a1a1a"
    fill-opacity=".08"
    d="M87 54c16-9 39-6 48 6 10 13 1 31-18 39-18 8-43 4-52-9-10-14 4-27 22-36Z"
  />
  <path
    fill="#1a1a1a"
    fill-opacity=".13"
    d="M158 74c13-5 31-1 36 10 5 10-4 22-19 25-15 4-31-2-35-12-4-9 5-18 18-23Z"
  />
  <path
    fill="#1a1a1a"
    fill-opacity=".07"
    d="M38 96c9-3 20 0 23 7 3 6-3 14-13 16-10 3-21-1-24-8-3-6 4-12 14-15Z"
  />
</svg>
